<svg width="80" height="65" viewBox="0 0 80 65" fill="none" xmlns="http://www.w3.org/2000/svg">
<path d="M0 13.6831V64H40V8.92284C40 8.92284 40 -2.01447 20 0.329241C0 2.67295 0 13.6831 0 13.6831Z" fill="#444444"/>
<path d="M80 13.6831V64H40V8.92284C40 8.92284 40 -2.01447 60 0.329241C80 2.67295 80 13.6831 80 13.6831Z" fill="#444444"/>
<path d="M33 64V61C33 63 34 64 36 64H33Z" fill="#343434"/>
<path d="M47 64V61C47 63 46 64 44 64H47Z" fill="#343434"/>
<path d="M80 64V61C80 63 79 64 77 64H80Z" fill="#343434"/>
<path d="M0 64V61C0 63 1 64 3 64H0Z" fill="#343434"/>
<path d="M64 48.8152L57 51.8629L62 64.0533H70L65 51.3549C64.3287 49.6501 65 48.3946 67 47.5533L64 48.8152Z" fill="#343434"/>
<path d="M73.1589 41.9476C74.0678 42.9578 73.7263 44.5608 72.4846 45.1128L49.8129 55.1925C48.4903 55.7805 47.0004 54.8124 47.0004 53.365V18.0861C47.0004 16.253 49.2611 15.3857 50.4872 16.7485L73.1589 41.9476Z" fill="#343434"/>
<path d="M70 64C70 64 75 64 73 64H73C71 64 70 64 68 59C66 54 70 64 70 64Z" fill="#343434"/>
<rect width="16" height="14" transform="matrix(-1 0 0 1 63 50)" fill="#343434"/>
<path d="M47 64V61C47 63 46 64 44 64H47Z" fill="#343434"/>
<path d="M80 64V61C80 63 79 64 77 64H80Z" fill="#343434"/>
<rect x="47" y="50" width="16" height="14" fill="#343434"/>
<path d="M16 48.8152L23 51.8629L18 64.0533H10L15 51.3549C15.6713 49.6501 15 48.3946 13 47.5533L16 48.8152Z" fill="#343434"/>
<path d="M6.84108 41.9476C5.93222 42.9578 6.27372 44.5608 7.51538 45.1128L30.1871 55.1925C31.5097 55.7805 32.9996 54.8124 32.9996 53.365V18.0861C32.9996 16.253 30.7389 15.3857 29.5128 16.7485L6.84108 41.9476Z" fill="#343434"/>
<path d="M10 64C10 64 5 64 7 64H7.00002C9 64 10 64 12 59C14 54 10 64 10 64Z" fill="#343434"/>
<rect x="17" y="50" width="16" height="14" fill="#343434"/>
</svg>
