<svg width="80" height="65" viewBox="0 0 80 65" fill="none" xmlns="http://www.w3.org/2000/svg">
<path d="M40 64V8.92284C40 8.92284 40 -2.01447 20 0.329241C0 2.67295 0 13.6831 0 13.6831V61C0 63 1 64 3 64H40Z" fill="#444444"/>
<path d="M40 64V8.92284C40 8.92284 40 -2.01447 60 0.329241C80 2.67295 80 13.6831 80 13.6831V61C80 63 79 64 77 64H40Z" fill="#444444"/>
<path d="M64 48.8153L57 51.8629L62 64.0534H70L65 51.355C64.3287 49.6502 65 48.3946 67 47.5534L64 48.8153Z" fill="#343434"/>
<path d="M73.1589 41.9477C74.0678 42.9579 73.7263 44.5609 72.4846 45.1129L49.8129 55.1926C48.4903 55.7806 47.0004 54.8125 47.0004 53.3651V18.0862C47.0004 16.2531 49.2611 15.3858 50.4872 16.7486L73.1589 41.9477Z" fill="#343434"/>
<path d="M69.5 64.0001C69.5 64.0001 75 64.0001 73 64.0001H73C71 64.0001 70 64.0001 68 59.0001C66 54.0001 69.5 64.0001 69.5 64.0001Z" fill="#343434"/>
<rect width="16" height="14" transform="matrix(-1 0 0 1 63 50)" fill="#343434"/>
<path d="M47 64V61C47 63 46 64 44 64H47Z" fill="#343434"/>
<rect x="47" y="50" width="16" height="14" fill="#343434"/>
<path d="M16 48.8153L23 51.8629L18 64.0534H10L15 51.355C15.6713 49.6502 15 48.3946 13 47.5534L16 48.8153Z" fill="#343434"/>
<path d="M6.84108 41.9477C5.93222 42.9579 6.27372 44.5609 7.51539 45.1129L30.1871 55.1926C31.5097 55.7806 32.9996 54.8125 32.9996 53.3651V18.0862C32.9996 16.2531 30.7389 15.3858 29.5128 16.7486L6.84108 41.9477Z" fill="#343434"/>
<path d="M10.5 64.0001C10.5 64.0001 5.00001 64.0001 7 64.0001H7.00002C9.00001 64.0001 10 64.0001 12 59.0001C14 54.0001 10.5 64.0001 10.5 64.0001Z" fill="#343434"/>
<rect x="17" y="50" width="16" height="14" fill="#343434"/>
</svg>
