<svg width="557" height="843" viewBox="0 0 557 843" fill="none" xmlns="http://www.w3.org/2000/svg">
<g clip-path="url(#clip0_9_43)">
<path fill-rule="evenodd" clip-rule="evenodd" d="M15 413.471L4 397.414L60.2115 270.295L53.5695 180.624L160.33 171.446L238.88 205.813L252.956 322.267L253.952 330.51H262.255H327.818H334.482L336.668 324.212L357.23 264.943H403.499L419.895 299.703L379.473 318.771L468.34 380.414L477.289 272.628L436.838 291.71L417.911 251.58L415.377 246.21H409.438H350.565H343.901L341.715 252.506L321.153 311.776H270.558L256.835 198.252L256.193 192.94L251.291 190.795L165.656 153.328L163.472 152.372L161.096 152.578L52.1856 161.941L52.1833 161.91L80.282 60.2143L184.649 0H385.354L488.382 60.2143L517.819 173.952V282.338L476.34 397.414L488.382 555.31L555.284 711.867L327.818 843L192.677 813.562V711.867L201.774 633.201L340.663 600.556L346.31 599.231L347.64 593.584L363.652 525.526L407.174 535.768L375.987 432.205L301.898 510.994L345.417 521.235L330.733 583.648L201.404 614.046L80.282 638.271V563.338L60.2115 532.5L80.282 503.124L56.1974 466.995L80.282 432.205V413.471H15Z" fill="#F2DD6E"/>
</g>
<defs>
<clipPath id="clip0_9_43">
<rect width="556.622" height="843" fill="white"/>
</clipPath>
</defs>
</svg>
