<svg width="557" height="843" viewBox="0 0 557 843" fill="none" xmlns="http://www.w3.org/2000/svg">
<g clip-path="url(#clip0_9_43)">
<path fill-rule="evenodd" clip-rule="evenodd" d="M15 413.471L4 397.414L60.2115 270.295L53.5695 180.624L160.33 171.446L238.88 205.813L252.956 322.267L253.952 330.51H262.255H327.818H334.482L336.668 324.212L357.23 264.943H403.499L427.91 316.695L387.473 335.771L476.34 397.414L488.382 555.31L555.284 711.867L327.818 843L192.677 813.562V711.867L201.774 633.201L340.663 600.556L346.31 599.231L347.64 593.584L363.652 525.526L407.174 535.768L375.987 432.205L301.898 510.994L345.417 521.235L330.733 583.648L201.404 614.046L80.282 638.271V563.338L60.2115 532.5L80.282 503.124L56.1974 466.995L80.282 432.205V413.471H15ZM444.853 308.703L485.289 289.628L476.34 397.414L517.819 282.338V173.952L488.382 60.2143L385.354 0H184.649L80.282 60.2143L52.1833 161.91L52.1856 161.941L161.096 152.578L163.472 152.372L165.656 153.328L251.291 190.795L256.193 192.94L256.835 198.252L270.558 311.776H321.153L341.715 252.506L343.901 246.21H350.565H409.438H415.377L417.911 251.58L444.853 308.703Z" fill="#F2DD6E"/>
</g>
<defs>
<clipPath id="clip0_9_43">
<rect width="556.622" height="843" fill="white"/>
</clipPath>
</defs>
</svg>
