<svg width="557" height="843" viewBox="0 0 557 843" fill="none" xmlns="http://www.w3.org/2000/svg">
<g clip-path="url(#clip0_9_43)">
<path d="M15 413.471L4 397.414L60.2115 270.295L52.1833 161.91L80.282 60.2143L184.649 0H385.354L488.382 60.2143L517.819 173.952V282.338L476.34 397.414L488.382 555.31L555.284 711.867L327.818 843L192.677 813.562V711.867L204.05 613.517L80.282 638.271V563.338L60.2115 532.5L80.282 503.124L56.1974 466.995L80.282 432.205V413.471H15Z" fill="#F2DD6E"/>
<path d="M338.522 591.438L340.663 600.556L346.31 599.231L347.64 593.584L338.522 591.438ZM375.987 432.205L301.898 510.994L407.174 535.768L375.987 432.205ZM347.64 593.584L365.797 516.408L347.562 512.118L329.405 589.292L347.64 593.584ZM209.535 631.332L340.663 600.556L336.382 582.32L205.255 613.097L209.535 631.332Z" fill="#E0CD67"/>
<path d="M161.902 161.91L165.656 153.328L163.472 152.372L161.096 152.578L161.902 161.91ZM247.536 199.376L256.835 198.252L256.193 192.94L251.291 190.795L247.536 199.376ZM262.255 321.143L252.956 322.267L253.952 330.51H262.255V321.143ZM327.818 321.143V330.51H334.482L336.668 324.212L327.818 321.143ZM350.565 255.576V246.21H343.901L341.715 252.506L350.565 255.576ZM409.438 255.576L417.911 251.58L415.377 246.21H409.438V255.576ZM476.34 397.414L485.289 289.628L387.473 335.771L476.34 397.414ZM54.3277 180.608L162.708 171.241L161.096 152.578L52.7151 161.944L54.3277 180.608ZM158.148 170.491L243.782 207.958L251.291 190.795L165.656 153.328L158.148 170.491ZM238.238 200.5L252.956 322.267L271.554 320.019L256.835 198.252L238.238 200.5ZM262.255 330.51H327.818V311.776H262.255V330.51ZM336.668 324.212L359.415 258.646L341.715 252.506L318.969 318.073L336.668 324.212ZM350.565 264.943H409.438V246.21H350.565V264.943ZM400.966 259.572L431.907 325.168L448.849 317.174L417.911 251.58L400.966 259.572Z" fill="#E0CD67"/>
<path d="M204.719 612.848H206.057L210.071 631.581H202.043L204.719 612.848Z" fill="#E0CD67"/>
</g>
<defs>
<clipPath id="clip0_9_43">
<rect width="556.622" height="843" fill="white"/>
</clipPath>
</defs>
</svg>
